<svg width="1024" height="1024" viewBox="0 0 1024 1024" fill="none" xmlns="http://www.w3.org/2000/svg">
<rect width="1024" height="1024" fill="#E0E0E0"/>
<path fill-rule="evenodd" clip-rule="evenodd" d="M505.779 403.505C491.312 403.505 482.001 413.75 482.001 423.579C482.001 427.021 480.634 430.322 478.2 432.756C475.766 435.19 472.465 436.558 469.023 436.558C465.58 436.558 462.279 435.19 459.845 432.756C457.411 430.322 456.044 427.021 456.044 423.579C456.044 396.877 479.648 377.547 505.779 377.547C531.91 377.547 555.514 396.877 555.514 423.579C555.514 435.347 551.222 446.318 543.573 454.625C541.151 457.272 538.486 459.903 536.046 462.325L534.765 463.571C532.115 466.145 529.569 468.824 527.133 471.601C525.84 473.095 524.654 474.68 523.586 476.343C533.578 478.202 543.084 482.089 551.517 487.764L680.146 574.463C696.586 585.539 701.034 603.83 695.323 619.249C689.699 634.408 674.712 645.778 655.244 645.778H368.064C348.82 645.778 333.903 634.616 328.158 619.647C322.309 604.419 326.428 586.231 342.487 574.948L465.267 488.56C474.431 482.14 484.924 477.87 495.967 476.066C497.784 467.292 502.768 460.18 507.354 454.78C510.33 451.285 513.583 448.014 516.508 445.124L517.892 443.74C520.367 441.317 522.513 439.188 524.468 437.06C527.618 433.633 529.556 428.961 529.556 423.562C529.556 413.75 520.246 403.505 505.779 403.505ZM537.015 509.274C528.534 503.655 518.546 500.747 508.375 500.933C498.308 500.994 488.491 504.081 480.202 509.794L357.421 596.164C351.434 600.369 350.655 605.82 352.403 610.337C354.22 615.096 359.377 619.82 368.064 619.82H655.244C664.052 619.82 669.192 615.027 670.992 610.216C672.67 605.647 671.805 600.144 665.627 595.991L537.015 509.274Z" fill="#A6A6A6"/>
</svg>
