<svg width="50" height="50" viewBox="0 0 50 50" fill="none" xmlns="http://www.w3.org/2000/svg">
<path fill-rule="evenodd" clip-rule="evenodd" d="M24.2916 11.9792C22.5499 11.9792 21.4291 13.2126 21.4291 14.3959C21.4291 14.8103 21.2645 15.2077 20.9715 15.5008C20.6784 15.7938 20.281 15.9584 19.8666 15.9584C19.4522 15.9584 19.0548 15.7938 18.7618 15.5008C18.4687 15.2077 18.3041 14.8103 18.3041 14.3959C18.3041 11.1813 21.1458 8.85425 24.2916 8.85425C27.4374 8.85425 30.2791 11.1813 30.2791 14.3959C30.2791 15.8126 29.7624 17.1334 28.8416 18.1334C28.5499 18.4522 28.2291 18.7688 27.9354 19.0605L27.7812 19.2105C27.4622 19.5203 27.1557 19.8428 26.8624 20.1772C26.7067 20.357 26.564 20.5478 26.4354 20.748C27.6383 20.9719 28.7827 21.4398 29.7979 22.123L45.2833 32.5605C47.2625 33.8938 47.7979 36.0959 47.1104 37.9522C46.4333 39.7772 44.6291 41.1459 42.2854 41.1459H7.71245C5.39578 41.1459 3.59995 39.8022 2.90828 38.0001C2.20411 36.1667 2.69995 33.9772 4.63328 32.6188L19.4145 22.2188C20.5177 21.446 21.781 20.9318 23.1104 20.7147C23.3291 19.6584 23.9291 18.8022 24.4812 18.1522C24.8395 17.7313 25.2312 17.3376 25.5833 16.9897L25.7499 16.823C26.0479 16.5313 26.3062 16.2751 26.5416 16.0188C26.9208 15.6063 27.1541 15.0438 27.1541 14.3938C27.1541 13.2126 26.0333 11.9792 24.2916 11.9792ZM28.052 24.7126C27.0311 24.0361 25.8286 23.6859 24.6041 23.7084C23.3922 23.7157 22.2104 24.0874 21.2125 24.7751L6.4312 35.173C5.71036 35.6792 5.61661 36.3355 5.82703 36.8792C6.04578 37.4522 6.66661 38.0209 7.71245 38.0209H42.2854C43.3458 38.0209 43.9645 37.4438 44.1812 36.8647C44.3833 36.3147 44.2791 35.6522 43.5354 35.1522L28.052 24.7126Z" fill="#FF007F"/>
</svg>
