<svg width="24" height="24" viewBox="0 0 24 24" fill="none" xmlns="http://www.w3.org/2000/svg">
<path d="M5 19.863C5 20.361 5.554 20.666 5.983 20.403L11.685 16.923C11.8554 16.8197 12.0508 16.7651 12.25 16.7651C12.4492 16.7651 12.6446 16.8197 12.815 16.923L18.517 20.403C18.614 20.4631 18.7252 20.4963 18.8393 20.4993C18.9533 20.5022 19.0661 20.4748 19.1661 20.4199C19.2661 20.365 19.3497 20.2845 19.4084 20.1866C19.4671 20.0888 19.4987 19.9771 19.5 19.863V6C19.5 5.20435 19.1839 4.44129 18.6213 3.87868C18.0587 3.31607 17.2956 3 16.5 3H8C7.20435 3 6.44129 3.31607 5.87868 3.87868C5.31607 4.44129 5 5.20435 5 6V19.863Z" fill="#FF007F" stroke="#FF007F" stroke-width="1.5" stroke-linejoin="round"/>
</svg>
