<svg width="24" height="24" viewBox="0 0 24 24" fill="none" xmlns="http://www.w3.org/2000/svg">
<path d="M6.133 20.0003C4.955 20.0003 4 19.0203 4 17.8103V9.00828C4 8.34328 4.295 7.71328 4.8 7.29828L10.667 2.48028C11.0419 2.16986 11.5133 2 12 2C12.4867 2 12.9581 2.16986 13.333 2.48028L19.199 7.29828C19.705 7.71328 20 8.34328 20 9.00828V17.8103C20 19.0203 19.045 20.0003 17.867 20.0003H6.133Z" stroke="#A6A6A6" stroke-width="1.5" stroke-linecap="round" stroke-linejoin="round"/>
<path d="M9.5 20.0005V14.5005C9.5 13.9701 9.71071 13.4613 10.0858 13.0863C10.4609 12.7112 10.9696 12.5005 11.5 12.5005H12.5C13.0304 12.5005 13.5391 12.7112 13.9142 13.0863C14.2893 13.4613 14.5 13.9701 14.5 14.5005V20.0005" stroke="#A6A6A6" stroke-width="1.5" stroke-linecap="round" stroke-linejoin="round"/>
</svg>
