<svg width="100" height="100" viewBox="0 0 100 100" fill="none" xmlns="http://www.w3.org/2000/svg">
<rect width="100" height="100" fill="white"/>
<circle cx="50" cy="50" r="41.5" fill="#FFD9EC" stroke="#FF62B0"/>
<ellipse cx="50" cy="69" rx="28" ry="6" fill="url(#paint0_linear_78_648)" fill-opacity="0.6"/>
<g clip-path="url(#clip0_78_648)">
<path d="M29.88 66.76C26.76 66.22 25.56 64.6 24.9 60.4C24 55.18 24.06 44.86 24.66 40.12C25.32 35.86 26.76 34.48 29.88 33.76C41.58 31 56.82 31 68.52 33.76C71.7 34.48 73.14 35.86 73.74 40.12C74.34 44.86 74.4 55.18 73.5 60.4C72.84 64.6 71.7 66.22 68.52 66.76C56.64 68.74 41.76 68.74 29.88 66.76ZM44.22 47.86C43.86 48.46 44.16 49.06 45 49.48C47.7 50.92 50.88 50.86 53.58 49.48C54.12 49.24 54.42 48.58 54.18 47.92C54.06 47.5 53.46 47.14 52.92 47.38C50.7 48.58 47.7 48.52 45.6 47.32C45.18 47.14 44.46 47.26 44.22 47.86Z" fill="#FF72B8"/>
</g>
<path d="M38 35.3447C55.5 45.8447 72.0947 38.6767 61 35.3447C61 35.3447 60.3868 35.6513 58.5 35.9044C56.229 36.209 52.1128 36.436 45 35.9574C42.9299 35.8181 40.6061 35.619 38 35.3447Z" fill="white"/>
<path d="M61 35.3447C59.5 15.8447 38 19.3447 38 35.3447C40.6061 35.619 42.9299 35.8181 45 35.9574C44.9426 35.3126 45.0633 34.6957 45.3235 34.1225C47.1637 30.0693 55.9799 28.2023 58.101 34.1225C58.291 34.6527 58.4273 35.2453 58.5 35.9044C60.3868 35.6513 61 35.3447 61 35.3447Z" fill="white"/>
<path d="M45 35.9574C52.1128 36.436 56.229 36.209 58.5 35.9044C58.4273 35.2453 58.291 34.6527 58.101 34.1225H45.3235C45.0633 34.6957 44.9426 35.3126 45 35.9574Z" fill="#FFA7D3"/>
<path d="M61 35.3447C72.0947 38.6767 55.5 45.8447 38 35.3447C38 19.3447 59.5 15.8447 61 35.3447ZM61 35.3447C61 35.3447 60.3868 35.6513 58.5 35.9044C56.229 36.209 52.1128 36.436 45 35.9574C42.9299 35.8181 40.6061 35.619 38 35.3447M45 35.9574C44.9426 35.3126 45.0633 34.6957 45.3235 34.1225M45.3235 34.1225C47.1637 30.0693 55.9799 28.2023 58.101 34.1225C58.291 34.6527 58.4273 35.2453 58.5 35.9044M45.3235 34.1225H58.101" stroke="#FF83C1"/>
<defs>
<linearGradient id="paint0_linear_78_648" x1="59.5" y1="82.5" x2="59.5" y2="57.5" gradientUnits="userSpaceOnUse">
<stop stop-color="#D9D9D9" stop-opacity="0.1"/>
<stop offset="1" stop-color="#737373" stop-opacity="0.5"/>
</linearGradient>
<clipPath id="clip0_78_648">
<rect width="51" height="38" fill="white" transform="translate(24 31)"/>
</clipPath>
</defs>
</svg>
