<svg width="100" height="100" viewBox="0 0 100 100" fill="none" xmlns="http://www.w3.org/2000/svg">
<rect width="100" height="100" fill="white"/>
<circle cx="50" cy="50" r="41.5" fill="#FFD9EC" stroke="#FF62B0"/>
<g clip-path="url(#clip0_97_631)">
<path d="M29.88 66.76C26.76 66.22 25.56 64.6 24.9 60.4C24 55.18 24.06 44.86 24.66 40.12C25.32 35.86 26.76 34.48 29.88 33.76C41.58 31 56.82 31 68.52 33.76C71.7 34.48 73.14 35.86 73.74 40.12C74.34 44.86 74.4 55.18 73.5 60.4C72.84 64.6 71.7 66.22 68.52 66.76C56.64 68.74 41.76 68.74 29.88 66.76ZM44.22 47.86C43.86 48.46 44.16 49.06 45 49.48C47.7 50.92 50.88 50.86 53.58 49.48C54.12 49.24 54.42 48.58 54.18 47.92C54.06 47.5 53.46 47.14 52.92 47.38C50.7 48.58 47.7 48.52 45.6 47.32C45.18 47.14 44.46 47.26 44.22 47.86Z" fill="#FF007F"/>
<circle cx="62.5" cy="50.5" r="2.5" fill="#FF83C1"/>
<circle cx="37.5" cy="50.5" r="2.5" fill="#FF83C1"/>
</g>
<path d="M47.5144 66.644L45.9028 64.6807C45.3607 64.0203 45.8429 63.0282 46.6971 63.0465L52.4502 63.1695C53.3044 63.1877 53.7437 64.1995 53.1739 64.8362L51.4799 66.7288C51.2852 66.9463 51.0052 67.0678 50.7134 67.0616L48.266 67.0093C47.9741 67.0031 47.6996 66.8696 47.5144 66.644Z" fill="#FFA7D3" stroke="#FF62B0"/>
<path d="M46.4938 84.6075L47.7357 67.9452C47.7752 67.415 48.2227 67.0084 48.7543 67.0197L50.2498 67.0517C50.7712 67.0628 51.1965 67.4728 51.2267 67.9934L52.1987 84.7138C52.2175 85.0371 52.0786 85.3495 51.8259 85.552L49.9444 87.0605C49.5663 87.3636 49.0253 87.352 48.6606 87.0331L46.8327 85.4346C46.596 85.2276 46.4704 84.9212 46.4938 84.6075Z" fill="#FFA7D3" stroke="#FF62B0"/>
<defs>
<clipPath id="clip0_97_631">
<rect width="51" height="38" fill="white" transform="translate(24 31)"/>
</clipPath>
</defs>
</svg>
