<svg width="100" height="100" viewBox="0 0 100 100" fill="none" xmlns="http://www.w3.org/2000/svg">
<rect width="100" height="100" fill="white"/>
<circle cx="50" cy="50" r="41.5" fill="#FFD9EC" stroke="#FF62B0"/>
<g clip-path="url(#clip0_97_624)">
<path d="M29.88 66.76C26.76 66.22 25.56 64.6 24.9 60.4C24 55.18 24.06 44.86 24.66 40.12C25.32 35.86 26.76 34.48 29.88 33.76C41.58 31 56.82 31 68.52 33.76C71.7 34.48 73.14 35.86 73.74 40.12C74.34 44.86 74.4 55.18 73.5 60.4C72.84 64.6 71.7 66.22 68.52 66.76C56.64 68.74 41.76 68.74 29.88 66.76ZM44.22 47.86C43.86 48.46 44.16 49.06 45 49.48C47.7 50.92 50.88 50.86 53.58 49.48C54.12 49.24 54.42 48.58 54.18 47.92C54.06 47.5 53.46 47.14 52.92 47.38C50.7 48.58 47.7 48.52 45.6 47.32C45.18 47.14 44.46 47.26 44.22 47.86Z" fill="#FF007F"/>
<circle cx="62.5" cy="50.5" r="2.5" fill="#FF83C1"/>
<circle cx="37.5" cy="50.5" r="2.5" fill="#FF83C1"/>
</g>
<path d="M67.7105 70.414C67.7105 70.414 68.2192 72.179 69.9208 72.7556C70.5326 73.3055 71.8154 72.7556 71.8154 72.7556C71.8154 72.7556 73.3352 73.0841 74.3414 72.4211C74.3414 72.4211 74.9694 71.0734 75.6044 70.414C76.7494 69.2254 78.5043 70.1545 79.3935 68.7415C80.2827 67.3284 78.8819 66.0022 79.3935 64.3928C79.7648 63.2249 80.9407 62.8843 80.9977 61.6534C68.0517 61.9879 75.3675 63.7188 79.3722 67.0056C73.877 63.7067 72.9369 64.633 73.4888 66.1809C74.0874 66.7281 74.8808 67.942 75.9202 70.0795C75.0805 68.9558 73.8882 67.3013 73.4888 66.1809C72.2625 65.06 71.8535 66.7362 71.8211 68.9997C71.9133 69.9779 71.9773 71.2175 72.0204 72.7556C71.8921 71.5572 71.804 70.1964 71.8211 68.9997C71.311 63.5893 69.9365 66.1806 66.4475 70.5186C67.1693 70.5519 67.7105 70.414 67.7105 70.414Z" fill="#FF66B2"/>
<path d="M63.9215 69.4105C64.6689 70.2446 65.6644 70.4824 66.4475 70.5186C71.8844 63.7588 69.3473 63.8751 66.2116 65.3302C65.5715 65.7126 64.782 66.1376 63.8232 66.6098C63.5963 67.5541 62.7675 68.1227 63.9215 69.4105Z" fill="#FF66B2"/>
<path d="M62.0269 62.3857C61.7607 63.8829 63.5488 64.2595 63.9215 65.7309C63.9906 66.0037 63.8787 66.3787 63.8232 66.6098C64.5771 66.1574 65.4137 65.7005 66.2116 65.3302C69.9404 63.1025 68.6028 62.317 66.1497 62.0268C65.1509 62.028 63.8514 61.9547 62.2399 61.8459C62.0922 62.0187 62.0772 62.1029 62.0285 62.3766L62.0269 62.3857Z" fill="#FF66B2"/>
<path d="M64.2372 56.3645C63.3451 57.447 64.7835 58.7289 64.2372 60.0442C63.8543 60.9661 62.7658 61.2306 62.2399 61.8459C63.5046 61.8617 64.9587 61.8858 66.1497 62.0268C70.1074 62.0219 69.3433 60.8475 64.553 56.0778C64.4428 56.1494 64.3373 56.243 64.2372 56.3645Z" fill="#FF66B2"/>
<path d="M67.3948 55.6955C66.3946 56.1938 65.3522 55.5577 64.553 56.0778C68.0263 59.0406 72.4469 65.0618 69.2253 53.5477C68.6282 54.1883 68.3351 55.2271 67.3948 55.6955Z" fill="#FF66B2"/>
<path d="M73.7099 55.361C72.4469 54.023 71.8346 52.8325 70.2366 53.0194C70.0358 53.0429 69.8619 53.0972 69.7079 53.175C70.2366 58.7061 70.5523 63.7238 73.7099 55.361Z" fill="#FF66B2"/>
<path d="M77.499 55.0265C76.4983 54.2108 75.5054 55.2818 74.3414 55.4016C72.109 58.7696 69.4399 65.419 77.9034 55.515C77.8111 55.3394 77.6818 55.1755 77.499 55.0265Z" fill="#FF66B2"/>
<path d="M80.9977 61.6534C81.0751 59.9825 79.1521 59.8682 78.4463 58.3716C78.0693 57.5724 78.2243 56.508 78.1305 56.03C69.0261 65.3964 75.6044 59.7097 80.9977 61.6534Z" fill="#FF66B2"/>
<path d="M62.0269 62.3857C61.7607 63.8829 63.5488 64.2595 63.9215 65.7309C63.9906 66.0037 63.8787 66.3787 63.8232 66.6098M62.0269 62.3857L62.0285 62.3766M62.0269 62.3857C62.0275 62.3827 62.028 62.3796 62.0285 62.3766M80.9977 61.6534C80.9407 62.8843 79.7648 63.2249 79.3935 64.3928C78.8819 66.0022 80.2827 67.3284 79.3935 68.7415C78.5043 70.1545 76.7494 69.2254 75.6044 70.414C74.9694 71.0734 74.3414 72.4211 74.3414 72.4211C73.3352 73.0841 71.8154 72.7556 71.8154 72.7556C71.8154 72.7556 70.5326 73.3055 69.9208 72.7556C68.2192 72.179 67.7105 70.414 67.7105 70.414C67.7105 70.414 67.1693 70.5519 66.4475 70.5186M80.9977 61.6534C81.0751 59.9825 79.1521 59.8682 78.4463 58.3716C78.0693 57.5724 78.2243 56.508 78.1305 56.03M80.9977 61.6534C68.0517 61.9879 75.3675 63.7188 79.3722 67.0056C73.877 63.7067 72.9369 64.6331 73.4888 66.1809M80.9977 61.6534C75.6044 59.7097 69.0261 65.3964 78.1305 56.03M73.7099 55.361C72.4469 54.023 71.8346 52.8325 70.2366 53.0194C70.0358 53.0429 69.8619 53.0972 69.7079 53.175M73.7099 55.361C73.867 55.5275 74.1365 55.4227 74.3414 55.4016M73.7099 55.361C70.5523 63.7238 70.2366 58.7061 69.7079 53.175M66.4475 70.5186C65.6644 70.4824 64.6689 70.2446 63.9215 69.4105C62.7675 68.1227 63.5963 67.5541 63.8232 66.6098M66.4475 70.5186C69.9365 66.1806 71.311 63.5893 71.8211 68.9997M66.4475 70.5186C71.8844 63.7588 69.3473 63.8751 66.2116 65.3302M78.1305 56.03C78.0367 55.552 77.9888 55.6774 77.9034 55.515M74.3414 55.4016C75.5054 55.2818 76.4983 54.2108 77.499 55.0265C77.6818 55.1755 77.8111 55.3394 77.9034 55.515M74.3414 55.4016C72.109 58.7696 69.4399 65.419 77.9034 55.515M69.7079 53.175C69.6083 53.2254 69.517 53.2857 69.4322 53.3539C69.3588 53.413 69.2903 53.478 69.2253 53.5477M64.553 56.0778C65.3522 55.5577 66.3946 56.1938 67.3948 55.6955C68.3351 55.2271 68.6282 54.1883 69.2253 53.5477M64.553 56.0778C64.4428 56.1494 64.3373 56.243 64.2372 56.3645C63.3451 57.447 64.7835 58.7289 64.2372 60.0442C63.8543 60.9661 62.7658 61.2306 62.2399 61.8459M64.553 56.0778C68.0263 59.0406 72.4469 65.0618 69.2253 53.5477M64.553 56.0778C69.3433 60.8475 70.1074 62.0219 66.1497 62.0268M62.2399 61.8459C63.8514 61.9547 65.1509 62.028 66.1497 62.0268M62.2399 61.8459C62.0922 62.0187 62.0772 62.1029 62.0285 62.3766M62.2399 61.8459C63.5046 61.8617 64.9587 61.8858 66.1497 62.0268M63.8232 66.6098C64.782 66.1376 65.5715 65.7126 66.2116 65.3302M63.8232 66.6098C64.5771 66.1574 65.4137 65.7005 66.2116 65.3302M73.4888 66.1809C74.0874 66.7281 74.8808 67.942 75.9202 70.0795C75.0805 68.9558 73.8882 67.3013 73.4888 66.1809ZM73.4888 66.1809C72.2625 65.06 71.8535 66.7362 71.8211 68.9997M71.8211 68.9997C71.9133 69.9779 71.9773 71.2175 72.0204 72.7556C71.8921 71.5572 71.804 70.1964 71.8211 68.9997ZM66.2116 65.3302C69.9404 63.1025 68.6028 62.317 66.1497 62.0268" stroke="#FF5AA8" stroke-linecap="round"/>
<defs>
<clipPath id="clip0_97_624">
<rect width="51" height="38" fill="white" transform="translate(24 31)"/>
</clipPath>
</defs>
</svg>
