<svg width="100" height="100" viewBox="0 0 100 100" fill="none" xmlns="http://www.w3.org/2000/svg">
<rect width="100" height="100" fill="white"/>
<circle cx="50" cy="50" r="41.5" fill="#FFD9EC" stroke="#FF62B0"/>
<ellipse cx="50" cy="69" rx="28" ry="6" fill="url(#paint0_linear_78_650)" fill-opacity="0.6"/>
<g clip-path="url(#clip0_78_650)">
<path d="M29.88 66.76C26.76 66.22 25.56 64.6 24.9 60.4C24 55.18 24.06 44.86 24.66 40.12C25.32 35.86 26.76 34.48 29.88 33.76C41.58 31 56.82 31 68.52 33.76C71.7 34.48 73.14 35.86 73.74 40.12C74.34 44.86 74.4 55.18 73.5 60.4C72.84 64.6 71.7 66.22 68.52 66.76C56.64 68.74 41.76 68.74 29.88 66.76ZM44.22 47.86C43.86 48.46 44.16 49.06 45 49.48C47.7 50.92 50.88 50.86 53.58 49.48C54.12 49.24 54.42 48.58 54.18 47.92C54.06 47.5 53.46 47.14 52.92 47.38C50.7 48.58 47.7 48.52 45.6 47.32C45.18 47.14 44.46 47.26 44.22 47.86Z" fill="#FF72B8"/>
</g>
<path d="M78.6794 43.5291C78.6794 46.2596 76.2131 48.4731 73.1707 48.4731C70.1284 48.4731 68.5802 46.6716 68.5802 43.9411C68.5802 41.2106 71.0465 38.997 74.0888 38.997C77.1312 38.997 78.6794 40.7986 78.6794 43.5291Z" fill="white"/>
<path d="M76.8432 43.7978C76.8432 45.6973 75.2737 47.2371 73.3377 47.2371C71.4016 47.2371 70.4164 45.9839 70.4164 44.0844C70.4164 42.1849 71.9859 40.6451 73.9219 40.6451C75.8579 40.6451 76.8432 41.8983 76.8432 43.7978Z" fill="white"/>
<path d="M77.8299 39.7091C87.6155 19.9329 64.2619 15.581 61 32.4731L63.3299 32.817C65.1938 18.8089 83.8877 22.405 75.5 38.4731L77.8299 39.7091Z" fill="white"/>
<path d="M78.6794 43.5291C78.6794 46.2596 76.2131 48.4731 73.1707 48.4731C70.1284 48.4731 68.5802 46.6716 68.5802 43.9411C68.5802 41.2106 71.0465 38.997 74.0888 38.997C77.1312 38.997 78.6794 40.7986 78.6794 43.5291Z" stroke="#FF83C1"/>
<path d="M76.8432 43.7978C76.8432 45.6973 75.2737 47.2371 73.3377 47.2371C71.4016 47.2371 70.4164 45.9839 70.4164 44.0844C70.4164 42.1849 71.9859 40.6451 73.9219 40.6451C75.8579 40.6451 76.8432 41.8983 76.8432 43.7978Z" stroke="#FF83C1"/>
<path d="M77.8299 39.7091C87.6155 19.9329 64.2619 15.581 61 32.4731L63.3299 32.817C65.1938 18.8089 83.8877 22.405 75.5 38.4731L77.8299 39.7091Z" stroke="#FF83C1"/>
<path fill-rule="evenodd" clip-rule="evenodd" d="M85.5242 38.3797L85.101 39.4544C84.9956 39.3914 84.8806 39.3461 84.7605 39.3203C84.7271 39.313 84.6927 39.3069 84.6573 39.3018C84.0772 39.2204 83.4686 39.5059 83.2979 39.9393C83.1273 40.3726 83.4588 40.7906 84.039 40.8719C84.619 40.9536 85.2276 40.6682 85.3984 40.2345C85.4036 40.2212 85.4083 40.2079 85.4125 40.1945L85.4238 40.1699L86.6261 37.1169C86.6418 37.0771 86.6482 37.0343 86.6449 36.9917C86.6415 36.949 86.6285 36.9077 86.6068 36.8709C86.5851 36.8341 86.5553 36.8027 86.5196 36.7791C86.4839 36.7555 86.4434 36.7404 86.401 36.7348L83.5525 36.3619L83.3348 36.3334C83.2726 36.3252 83.2094 36.3381 83.1554 36.37C83.1014 36.4019 83.0595 36.4509 83.0366 36.5093L82.0347 39.0533C81.9293 38.9903 81.8143 38.945 81.6942 38.9192C81.6609 38.9117 81.6265 38.9054 81.5912 38.9003C81.011 38.819 80.4024 39.1045 80.2316 39.5382C80.0608 39.9719 80.3925 40.3894 80.9727 40.4708C81.5527 40.5525 82.1613 40.2671 82.3321 39.8334C82.3373 39.8201 82.3421 39.8068 82.3465 39.7935L82.3576 39.7685L83.0329 38.0539L85.5242 38.3797ZM85.7367 37.8403L85.9707 37.2461L83.4794 36.9199L83.2454 37.5141L85.5972 37.822L85.7367 37.8403ZM81.8276 39.5762C81.8207 39.5929 81.8145 39.6098 81.8088 39.6269C81.7905 39.6733 81.7237 39.7622 81.567 39.8356C81.4059 39.9099 81.227 39.937 81.051 39.9137C80.8715 39.8885 80.7869 39.8189 80.7609 39.7865C80.7562 39.7808 80.7523 39.7744 80.7495 39.7675L80.7494 39.7667L80.7493 39.7638C80.7503 39.7571 80.7522 39.7505 80.755 39.7443C80.7733 39.6979 80.8401 39.6089 80.9968 39.5356C81.1579 39.4613 81.3369 39.4342 81.5128 39.4575C81.5928 39.4669 81.6701 39.4922 81.7401 39.5321C81.7682 39.5496 81.7973 39.5643 81.8276 39.5762ZM84.8937 39.9777C84.8869 39.9943 84.8806 40.0112 84.875 40.0283C84.8567 40.0747 84.7898 40.1637 84.6332 40.237C84.4721 40.3114 84.2931 40.3384 84.1172 40.3151C83.9377 40.29 83.853 40.2204 83.8271 40.188C83.8224 40.1822 83.8185 40.1758 83.8157 40.169L83.8156 40.1681L83.8155 40.1653C83.8165 40.1585 83.8184 40.152 83.8212 40.1457C83.8394 40.0993 83.9063 40.0104 84.0629 39.9371C84.2241 39.8627 84.403 39.8356 84.579 39.859C84.659 39.8683 84.7363 39.8937 84.8063 39.9336C84.8343 39.9511 84.8635 39.9658 84.8937 39.9777Z" fill="#FF007F"/>
<defs>
<linearGradient id="paint0_linear_78_650" x1="59.5" y1="82.5" x2="59.5" y2="57.5" gradientUnits="userSpaceOnUse">
<stop stop-color="#D9D9D9" stop-opacity="0.1"/>
<stop offset="1" stop-color="#737373" stop-opacity="0.5"/>
</linearGradient>
<clipPath id="clip0_78_650">
<rect width="51" height="38" fill="white" transform="translate(24 31)"/>
</clipPath>
</defs>
</svg>
