<svg width="100" height="100" viewBox="0 0 100 100" fill="none" xmlns="http://www.w3.org/2000/svg">
<rect width="100" height="100" fill="white"/>
<circle cx="50" cy="50" r="41.5" fill="#FFD9EC" stroke="#FF62B0"/>
<ellipse cx="50" cy="69" rx="28" ry="6" fill="url(#paint0_linear_78_651)" fill-opacity="0.6"/>
<g clip-path="url(#clip0_78_651)">
<path d="M24 52.5C24 38.7 32.94 30 49.44 30C65.82 30 74.82 38.7 74.82 52.5C74.82 64.44 68.28 68.88 49.44 68.88C30.48 68.88 24 64.44 24 52.5ZM45.54 56.46H53.22C54.24 56.46 54.24 54.24 53.22 54.24H45.54C44.52 54.24 44.52 56.46 45.54 56.46Z" fill="#FF007F"/>
<circle cx="61.5" cy="49.5" r="2.5" fill="#FF83C1"/>
<circle cx="36.5" cy="49.5" r="2.5" fill="#FF83C1"/>
</g>
<circle cx="32.5149" cy="63.1728" r="5.5" transform="rotate(-47.296 32.5149 63.1728)" fill="white" stroke="#FFA7D3" stroke-width="2"/>
<rect x="33.8155" y="69.1359" width="7" height="19" rx="1" transform="rotate(-47.296 33.8155 69.1359)" fill="#FFA7D3"/>
<rect x="14.709" y="51.5024" width="7" height="16" rx="1" transform="rotate(-47.296 14.709 51.5024)" fill="#FFA7D3"/>
<rect x="36.9204" y="56.9812" width="2" height="2" rx="0.5" transform="rotate(43.8 36.9204 56.9812)" fill="#FFA7D3"/>
<mask id="path-10-inside-1_78_651" fill="white">
<rect x="9.67821" y="49.5811" width="11" height="6" rx="1" transform="rotate(-47.296 9.67821 49.5811)"/>
</mask>
<rect x="9.67821" y="49.5811" width="11" height="6" rx="1" transform="rotate(-47.296 9.67821 49.5811)" stroke="#FFA7D3" stroke-width="4" mask="url(#path-10-inside-1_78_651)"/>
<circle cx="45.3751" cy="75.0415" r="0.5" transform="rotate(-47.296 45.3751 75.0415)" fill="white"/>
<circle cx="46.8448" cy="76.3979" r="0.5" transform="rotate(-47.296 46.8448 76.3979)" fill="white"/>
<circle cx="48.3146" cy="77.7544" r="0.5" transform="rotate(-47.296 48.3146 77.7544)" fill="white"/>
<circle cx="43.9054" cy="73.6851" r="0.5" transform="rotate(-47.296 43.9054 73.6851)" fill="white"/>
<circle cx="32.7296" cy="63.4593" r="0.5" transform="rotate(14.1265 32.7296 63.4593)" fill="#FF007F"/>
<path d="M32.7296 63.4593L35.6421 62.13" stroke="#FF007F" stroke-width="0.5" stroke-linecap="round"/>
<path d="M32.7296 63.4593L30.1864 61.2725" stroke="#FF007F" stroke-width="0.5" stroke-linecap="round"/>
<defs>
<linearGradient id="paint0_linear_78_651" x1="59.5" y1="82.5" x2="59.5" y2="57.5" gradientUnits="userSpaceOnUse">
<stop stop-color="#D9D9D9" stop-opacity="0.1"/>
<stop offset="1" stop-color="#737373" stop-opacity="0.5"/>
</linearGradient>
<clipPath id="clip0_78_651">
<rect width="51" height="39" fill="white" transform="translate(24 30)"/>
</clipPath>
</defs>
</svg>
